<mxfile host="65bd71144e">
    <diagram id="9_MOAkN4kMP9BEvFYpgS" name="IF Statement">
        <mxGraphModel dx="990" dy="764" grid="1" gridSize="10" guides="1" tooltips="1" connect="1" arrows="1" fold="1" page="1" pageScale="1" pageWidth="827" pageHeight="1169" math="0" shadow="0">
            <root>
                <mxCell id="0"/>
                <mxCell id="1" parent="0"/>
                <mxCell id="hfvpIIwYiuK8dtoKHQe8-17" style="edgeStyle=none;html=1;entryX=0.5;entryY=0;entryDx=0;entryDy=0;" edge="1" parent="1" source="2" target="hfvpIIwYiuK8dtoKHQe8-16">
                    <mxGeometry relative="1" as="geometry"/>
                </mxCell>
                <mxCell id="2" value="Start" style="rounded=1;whiteSpace=wrap;html=1;fillColor=#008a00;fontColor=#ffffff;strokeColor=#005700;" vertex="1" parent="1">
                    <mxGeometry x="320" y="40" width="120" height="60" as="geometry"/>
                </mxCell>
                <mxCell id="3" value="Stop" style="rounded=1;whiteSpace=wrap;html=1;fillColor=#a20025;fontColor=#ffffff;strokeColor=#6F0000;" vertex="1" parent="1">
                    <mxGeometry x="320" y="700" width="120" height="60" as="geometry"/>
                </mxCell>
                <mxCell id="9" value="" style="edgeStyle=none;html=1;" edge="1" parent="1" source="6" target="8">
                    <mxGeometry relative="1" as="geometry"/>
                </mxCell>
                <mxCell id="6" value="true" style="ellipse;whiteSpace=wrap;html=1;rounded=1;fillColor=#60a917;strokeColor=#2D7600;fontColor=#ffffff;" vertex="1" parent="1">
                    <mxGeometry x="320" y="320" width="120" height="60" as="geometry"/>
                </mxCell>
                <mxCell id="10" style="edgeStyle=none;html=1;entryX=0.5;entryY=0;entryDx=0;entryDy=0;" edge="1" parent="1" source="8" target="3">
                    <mxGeometry relative="1" as="geometry"/>
                </mxCell>
                <mxCell id="8" value="Anweisung" style="shape=parallelogram;perimeter=parallelogramPerimeter;whiteSpace=wrap;html=1;fixedSize=1;rounded=1;fillColor=#0050ef;fontColor=#ffffff;strokeColor=#001DBC;" vertex="1" parent="1">
                    <mxGeometry x="320" y="460" width="120" height="60" as="geometry"/>
                </mxCell>
                <mxCell id="14" value="" style="edgeStyle=none;html=1;" edge="1" parent="1" source="11" target="13">
                    <mxGeometry relative="1" as="geometry"/>
                </mxCell>
                <mxCell id="11" value="false" style="ellipse;whiteSpace=wrap;html=1;rounded=1;fillColor=#a20025;fontColor=#ffffff;strokeColor=#6F0000;" vertex="1" parent="1">
                    <mxGeometry x="520" y="170" width="120" height="60" as="geometry"/>
                </mxCell>
                <mxCell id="16" value="" style="edgeStyle=none;html=1;" edge="1" parent="1" source="13">
                    <mxGeometry relative="1" as="geometry">
                        <mxPoint x="380" y="640" as="targetPoint"/>
                    </mxGeometry>
                </mxCell>
                <mxCell id="13" value="" style="shape=waypoint;sketch=0;size=6;pointerEvents=1;points=[];fillColor=default;resizable=0;rotatable=0;perimeter=centerPerimeter;snapToPoint=1;rounded=1;" vertex="1" parent="1">
                    <mxGeometry x="560" y="620" width="40" height="40" as="geometry"/>
                </mxCell>
                <mxCell id="hfvpIIwYiuK8dtoKHQe8-18" style="edgeStyle=none;html=1;" edge="1" parent="1" source="hfvpIIwYiuK8dtoKHQe8-16" target="6">
                    <mxGeometry relative="1" as="geometry"/>
                </mxCell>
                <mxCell id="hfvpIIwYiuK8dtoKHQe8-19" style="edgeStyle=none;html=1;" edge="1" parent="1" source="hfvpIIwYiuK8dtoKHQe8-16" target="11">
                    <mxGeometry relative="1" as="geometry"/>
                </mxCell>
                <mxCell id="hfvpIIwYiuK8dtoKHQe8-16" value="a &amp;lt; b" style="rhombus;whiteSpace=wrap;html=1;fillColor=#e3c800;fontColor=#000000;strokeColor=#B09500;" vertex="1" parent="1">
                    <mxGeometry x="340" y="160" width="80" height="80" as="geometry"/>
                </mxCell>
            </root>
        </mxGraphModel>
    </diagram>
    <diagram name="IF ELSE Statement" id="1dceWZzsm4PJTTr_wJyu">
        <mxGraphModel dx="990" dy="764" grid="1" gridSize="10" guides="1" tooltips="1" connect="1" arrows="1" fold="1" page="1" pageScale="1" pageWidth="827" pageHeight="1169" math="0" shadow="0">
            <root>
                <mxCell id="slrAPmYWPRP1MwGlYwiG-0"/>
                <mxCell id="slrAPmYWPRP1MwGlYwiG-1" parent="slrAPmYWPRP1MwGlYwiG-0"/>
                <mxCell id="4FGgYiBkyOb4NDxPGlnk-2" style="edgeStyle=none;html=1;" edge="1" parent="slrAPmYWPRP1MwGlYwiG-1" source="slrAPmYWPRP1MwGlYwiG-3" target="4FGgYiBkyOb4NDxPGlnk-1">
                    <mxGeometry relative="1" as="geometry"/>
                </mxCell>
                <mxCell id="slrAPmYWPRP1MwGlYwiG-3" value="Start" style="rounded=1;whiteSpace=wrap;html=1;fillColor=#008a00;fontColor=#ffffff;strokeColor=#005700;" vertex="1" parent="slrAPmYWPRP1MwGlYwiG-1">
                    <mxGeometry x="320" y="40" width="120" height="60" as="geometry"/>
                </mxCell>
                <mxCell id="slrAPmYWPRP1MwGlYwiG-4" value="Stop" style="rounded=1;whiteSpace=wrap;html=1;fillColor=#a20025;fontColor=#ffffff;strokeColor=#6F0000;" vertex="1" parent="slrAPmYWPRP1MwGlYwiG-1">
                    <mxGeometry x="320" y="700" width="120" height="60" as="geometry"/>
                </mxCell>
                <mxCell id="slrAPmYWPRP1MwGlYwiG-8" value="" style="edgeStyle=none;html=1;" edge="1" parent="slrAPmYWPRP1MwGlYwiG-1" source="slrAPmYWPRP1MwGlYwiG-9" target="slrAPmYWPRP1MwGlYwiG-11">
                    <mxGeometry relative="1" as="geometry"/>
                </mxCell>
                <mxCell id="slrAPmYWPRP1MwGlYwiG-9" value="true" style="ellipse;whiteSpace=wrap;html=1;rounded=1;fillColor=#60a917;strokeColor=#2D7600;fontColor=#ffffff;" vertex="1" parent="slrAPmYWPRP1MwGlYwiG-1">
                    <mxGeometry x="320" y="320" width="120" height="60" as="geometry"/>
                </mxCell>
                <mxCell id="slrAPmYWPRP1MwGlYwiG-10" style="edgeStyle=none;html=1;entryX=0.5;entryY=0;entryDx=0;entryDy=0;" edge="1" parent="slrAPmYWPRP1MwGlYwiG-1" source="slrAPmYWPRP1MwGlYwiG-11" target="slrAPmYWPRP1MwGlYwiG-4">
                    <mxGeometry relative="1" as="geometry"/>
                </mxCell>
                <mxCell id="slrAPmYWPRP1MwGlYwiG-11" value="Anweisung" style="shape=parallelogram;perimeter=parallelogramPerimeter;whiteSpace=wrap;html=1;fixedSize=1;rounded=1;fillColor=#0050ef;fontColor=#ffffff;strokeColor=#001DBC;" vertex="1" parent="slrAPmYWPRP1MwGlYwiG-1">
                    <mxGeometry x="320" y="460" width="120" height="60" as="geometry"/>
                </mxCell>
                <mxCell id="slrAPmYWPRP1MwGlYwiG-18" value="" style="edgeStyle=none;html=1;" edge="1" parent="slrAPmYWPRP1MwGlYwiG-1" source="slrAPmYWPRP1MwGlYwiG-13" target="slrAPmYWPRP1MwGlYwiG-17">
                    <mxGeometry relative="1" as="geometry"/>
                </mxCell>
                <mxCell id="slrAPmYWPRP1MwGlYwiG-13" value="false" style="ellipse;whiteSpace=wrap;html=1;rounded=1;fillColor=#a20025;fontColor=#ffffff;strokeColor=#6F0000;" vertex="1" parent="slrAPmYWPRP1MwGlYwiG-1">
                    <mxGeometry x="520" y="170" width="120" height="60" as="geometry"/>
                </mxCell>
                <mxCell id="slrAPmYWPRP1MwGlYwiG-20" value="" style="edgeStyle=none;html=1;" edge="1" parent="slrAPmYWPRP1MwGlYwiG-1" source="slrAPmYWPRP1MwGlYwiG-17" target="slrAPmYWPRP1MwGlYwiG-19">
                    <mxGeometry relative="1" as="geometry"/>
                </mxCell>
                <mxCell id="slrAPmYWPRP1MwGlYwiG-17" value="Else Anweisung" style="shape=parallelogram;perimeter=parallelogramPerimeter;whiteSpace=wrap;html=1;fixedSize=1;fillColor=#0050ef;strokeColor=#001DBC;fontColor=#ffffff;rounded=1;" vertex="1" parent="slrAPmYWPRP1MwGlYwiG-1">
                    <mxGeometry x="520" y="460" width="120" height="60" as="geometry"/>
                </mxCell>
                <mxCell id="slrAPmYWPRP1MwGlYwiG-22" value="" style="edgeStyle=none;html=1;" edge="1" parent="slrAPmYWPRP1MwGlYwiG-1" source="slrAPmYWPRP1MwGlYwiG-19">
                    <mxGeometry relative="1" as="geometry">
                        <mxPoint x="380" y="640" as="targetPoint"/>
                    </mxGeometry>
                </mxCell>
                <mxCell id="slrAPmYWPRP1MwGlYwiG-19" value="" style="shape=waypoint;sketch=0;size=6;pointerEvents=1;points=[];resizable=0;rotatable=0;perimeter=centerPerimeter;snapToPoint=1;rounded=1;" vertex="1" parent="slrAPmYWPRP1MwGlYwiG-1">
                    <mxGeometry x="560" y="620" width="40" height="40" as="geometry"/>
                </mxCell>
                <mxCell id="4FGgYiBkyOb4NDxPGlnk-3" style="edgeStyle=none;html=1;entryX=0.5;entryY=0;entryDx=0;entryDy=0;" edge="1" parent="slrAPmYWPRP1MwGlYwiG-1" source="4FGgYiBkyOb4NDxPGlnk-1" target="slrAPmYWPRP1MwGlYwiG-9">
                    <mxGeometry relative="1" as="geometry"/>
                </mxCell>
                <mxCell id="4FGgYiBkyOb4NDxPGlnk-5" style="edgeStyle=none;html=1;" edge="1" parent="slrAPmYWPRP1MwGlYwiG-1" source="4FGgYiBkyOb4NDxPGlnk-1" target="slrAPmYWPRP1MwGlYwiG-13">
                    <mxGeometry relative="1" as="geometry"/>
                </mxCell>
                <mxCell id="4FGgYiBkyOb4NDxPGlnk-1" value="a &amp;lt; b" style="rhombus;whiteSpace=wrap;html=1;fillColor=#e3c800;fontColor=#000000;strokeColor=#B09500;" vertex="1" parent="slrAPmYWPRP1MwGlYwiG-1">
                    <mxGeometry x="340" y="160" width="80" height="80" as="geometry"/>
                </mxCell>
            </root>
        </mxGraphModel>
    </diagram>
    <diagram name="IF ELSEIF ELSE Statement" id="uPTDh-RGxwjJ6oIePWT7">
        <mxGraphModel dx="990" dy="764" grid="1" gridSize="10" guides="1" tooltips="1" connect="1" arrows="1" fold="1" page="1" pageScale="1" pageWidth="827" pageHeight="1169" math="0" shadow="0">
            <root>
                <mxCell id="sM3O0pvL-J6C8m5YZxhi-0"/>
                <mxCell id="sM3O0pvL-J6C8m5YZxhi-1" parent="sM3O0pvL-J6C8m5YZxhi-0"/>
                <mxCell id="ePnOEDz-q3o3Hu1mMtfP-2" style="edgeStyle=none;html=1;entryX=0.5;entryY=0;entryDx=0;entryDy=0;" edge="1" parent="sM3O0pvL-J6C8m5YZxhi-1" source="sM3O0pvL-J6C8m5YZxhi-3" target="ePnOEDz-q3o3Hu1mMtfP-0">
                    <mxGeometry relative="1" as="geometry"/>
                </mxCell>
                <mxCell id="sM3O0pvL-J6C8m5YZxhi-3" value="Start" style="rounded=1;whiteSpace=wrap;html=1;fillColor=#008a00;fontColor=#ffffff;strokeColor=#005700;" vertex="1" parent="sM3O0pvL-J6C8m5YZxhi-1">
                    <mxGeometry x="80" y="40" width="120" height="60" as="geometry"/>
                </mxCell>
                <mxCell id="sM3O0pvL-J6C8m5YZxhi-4" value="Stop" style="rounded=1;whiteSpace=wrap;html=1;fillColor=#a20025;fontColor=#ffffff;strokeColor=#6F0000;" vertex="1" parent="sM3O0pvL-J6C8m5YZxhi-1">
                    <mxGeometry x="80" y="700" width="120" height="60" as="geometry"/>
                </mxCell>
                <mxCell id="sM3O0pvL-J6C8m5YZxhi-8" value="" style="edgeStyle=none;html=1;" edge="1" parent="sM3O0pvL-J6C8m5YZxhi-1" source="sM3O0pvL-J6C8m5YZxhi-9" target="sM3O0pvL-J6C8m5YZxhi-11">
                    <mxGeometry relative="1" as="geometry"/>
                </mxCell>
                <mxCell id="sM3O0pvL-J6C8m5YZxhi-9" value="true" style="ellipse;whiteSpace=wrap;html=1;rounded=1;fillColor=#60a917;strokeColor=#2D7600;fontColor=#ffffff;" vertex="1" parent="sM3O0pvL-J6C8m5YZxhi-1">
                    <mxGeometry x="80" y="320" width="120" height="60" as="geometry"/>
                </mxCell>
                <mxCell id="sM3O0pvL-J6C8m5YZxhi-10" style="edgeStyle=none;html=1;entryX=0.5;entryY=0;entryDx=0;entryDy=0;" edge="1" parent="sM3O0pvL-J6C8m5YZxhi-1" source="sM3O0pvL-J6C8m5YZxhi-11" target="sM3O0pvL-J6C8m5YZxhi-4">
                    <mxGeometry relative="1" as="geometry"/>
                </mxCell>
                <mxCell id="sM3O0pvL-J6C8m5YZxhi-11" value="1. Anweisung" style="shape=parallelogram;perimeter=parallelogramPerimeter;whiteSpace=wrap;html=1;fixedSize=1;rounded=1;fillColor=#0050ef;fontColor=#ffffff;strokeColor=#001DBC;" vertex="1" parent="sM3O0pvL-J6C8m5YZxhi-1">
                    <mxGeometry x="80" y="460" width="120" height="60" as="geometry"/>
                </mxCell>
                <mxCell id="ePnOEDz-q3o3Hu1mMtfP-5" style="edgeStyle=none;html=1;" edge="1" parent="sM3O0pvL-J6C8m5YZxhi-1" source="sM3O0pvL-J6C8m5YZxhi-13" target="ePnOEDz-q3o3Hu1mMtfP-1">
                    <mxGeometry relative="1" as="geometry"/>
                </mxCell>
                <mxCell id="sM3O0pvL-J6C8m5YZxhi-13" value="false" style="ellipse;whiteSpace=wrap;html=1;rounded=1;fillColor=#a20025;fontColor=#ffffff;strokeColor=#6F0000;" vertex="1" parent="sM3O0pvL-J6C8m5YZxhi-1">
                    <mxGeometry x="280" y="170" width="120" height="60" as="geometry"/>
                </mxCell>
                <mxCell id="sM3O0pvL-J6C8m5YZxhi-35" value="" style="edgeStyle=none;html=1;" edge="1" parent="sM3O0pvL-J6C8m5YZxhi-1" source="sM3O0pvL-J6C8m5YZxhi-15" target="sM3O0pvL-J6C8m5YZxhi-34">
                    <mxGeometry relative="1" as="geometry"/>
                </mxCell>
                <mxCell id="sM3O0pvL-J6C8m5YZxhi-15" value="Else Anweisung" style="shape=parallelogram;perimeter=parallelogramPerimeter;whiteSpace=wrap;html=1;fixedSize=1;fillColor=#0050ef;strokeColor=#001DBC;fontColor=#ffffff;rounded=1;" vertex="1" parent="sM3O0pvL-J6C8m5YZxhi-1">
                    <mxGeometry x="680" y="460" width="120" height="60" as="geometry"/>
                </mxCell>
                <mxCell id="sM3O0pvL-J6C8m5YZxhi-21" value="" style="edgeStyle=none;html=1;" edge="1" parent="sM3O0pvL-J6C8m5YZxhi-1" source="sM3O0pvL-J6C8m5YZxhi-22">
                    <mxGeometry relative="1" as="geometry">
                        <mxPoint x="740" y="460" as="targetPoint"/>
                    </mxGeometry>
                </mxCell>
                <mxCell id="sM3O0pvL-J6C8m5YZxhi-22" value="false" style="ellipse;whiteSpace=wrap;html=1;rounded=1;fillColor=#a20025;fontColor=#ffffff;strokeColor=#6F0000;" vertex="1" parent="sM3O0pvL-J6C8m5YZxhi-1">
                    <mxGeometry x="680" y="170" width="120" height="60" as="geometry"/>
                </mxCell>
                <mxCell id="sM3O0pvL-J6C8m5YZxhi-26" value="" style="edgeStyle=none;html=1;" edge="1" parent="sM3O0pvL-J6C8m5YZxhi-1" source="sM3O0pvL-J6C8m5YZxhi-27" target="sM3O0pvL-J6C8m5YZxhi-29">
                    <mxGeometry relative="1" as="geometry"/>
                </mxCell>
                <mxCell id="sM3O0pvL-J6C8m5YZxhi-27" value="true" style="ellipse;whiteSpace=wrap;html=1;rounded=1;fillColor=#60a917;strokeColor=#2D7600;fontColor=#ffffff;" vertex="1" parent="sM3O0pvL-J6C8m5YZxhi-1">
                    <mxGeometry x="480" y="320" width="120" height="60" as="geometry"/>
                </mxCell>
                <mxCell id="sM3O0pvL-J6C8m5YZxhi-31" value="" style="edgeStyle=none;html=1;" edge="1" parent="sM3O0pvL-J6C8m5YZxhi-1" source="sM3O0pvL-J6C8m5YZxhi-29" target="sM3O0pvL-J6C8m5YZxhi-30">
                    <mxGeometry relative="1" as="geometry"/>
                </mxCell>
                <mxCell id="sM3O0pvL-J6C8m5YZxhi-29" value="2. Anweisung" style="shape=parallelogram;perimeter=parallelogramPerimeter;whiteSpace=wrap;html=1;fixedSize=1;rounded=1;fillColor=#0050ef;fontColor=#ffffff;strokeColor=#001DBC;" vertex="1" parent="sM3O0pvL-J6C8m5YZxhi-1">
                    <mxGeometry x="480" y="460" width="120" height="60" as="geometry"/>
                </mxCell>
                <mxCell id="sM3O0pvL-J6C8m5YZxhi-33" value="" style="edgeStyle=none;html=1;" edge="1" parent="sM3O0pvL-J6C8m5YZxhi-1" source="sM3O0pvL-J6C8m5YZxhi-30">
                    <mxGeometry relative="1" as="geometry">
                        <mxPoint x="140" y="600" as="targetPoint"/>
                    </mxGeometry>
                </mxCell>
                <mxCell id="sM3O0pvL-J6C8m5YZxhi-30" value="" style="shape=waypoint;sketch=0;size=6;pointerEvents=1;points=[];resizable=0;rotatable=0;perimeter=centerPerimeter;snapToPoint=1;rounded=1;" vertex="1" parent="sM3O0pvL-J6C8m5YZxhi-1">
                    <mxGeometry x="520" y="580" width="40" height="40" as="geometry"/>
                </mxCell>
                <mxCell id="sM3O0pvL-J6C8m5YZxhi-37" value="" style="edgeStyle=none;html=1;" edge="1" parent="sM3O0pvL-J6C8m5YZxhi-1" source="sM3O0pvL-J6C8m5YZxhi-34">
                    <mxGeometry relative="1" as="geometry">
                        <mxPoint x="140" y="680" as="targetPoint"/>
                    </mxGeometry>
                </mxCell>
                <mxCell id="sM3O0pvL-J6C8m5YZxhi-34" value="" style="shape=waypoint;sketch=0;size=6;pointerEvents=1;points=[];resizable=0;rotatable=0;perimeter=centerPerimeter;snapToPoint=1;rounded=1;" vertex="1" parent="sM3O0pvL-J6C8m5YZxhi-1">
                    <mxGeometry x="720" y="660" width="40" height="40" as="geometry"/>
                </mxCell>
                <mxCell id="ePnOEDz-q3o3Hu1mMtfP-3" style="edgeStyle=none;html=1;entryX=0.5;entryY=0;entryDx=0;entryDy=0;" edge="1" parent="sM3O0pvL-J6C8m5YZxhi-1" source="ePnOEDz-q3o3Hu1mMtfP-0" target="sM3O0pvL-J6C8m5YZxhi-9">
                    <mxGeometry relative="1" as="geometry"/>
                </mxCell>
                <mxCell id="ePnOEDz-q3o3Hu1mMtfP-4" style="edgeStyle=none;html=1;entryX=0;entryY=0.5;entryDx=0;entryDy=0;" edge="1" parent="sM3O0pvL-J6C8m5YZxhi-1" source="ePnOEDz-q3o3Hu1mMtfP-0" target="sM3O0pvL-J6C8m5YZxhi-13">
                    <mxGeometry relative="1" as="geometry"/>
                </mxCell>
                <mxCell id="ePnOEDz-q3o3Hu1mMtfP-0" value="1. Abfrage&lt;br&gt;a &amp;lt; b" style="rhombus;whiteSpace=wrap;html=1;fillColor=#e3c800;fontColor=#000000;strokeColor=#B09500;" vertex="1" parent="sM3O0pvL-J6C8m5YZxhi-1">
                    <mxGeometry x="100" y="160" width="80" height="80" as="geometry"/>
                </mxCell>
                <mxCell id="ePnOEDz-q3o3Hu1mMtfP-6" style="edgeStyle=none;html=1;entryX=0;entryY=0.5;entryDx=0;entryDy=0;" edge="1" parent="sM3O0pvL-J6C8m5YZxhi-1" source="ePnOEDz-q3o3Hu1mMtfP-1" target="sM3O0pvL-J6C8m5YZxhi-22">
                    <mxGeometry relative="1" as="geometry"/>
                </mxCell>
                <mxCell id="ePnOEDz-q3o3Hu1mMtfP-7" style="edgeStyle=none;html=1;entryX=0.5;entryY=0;entryDx=0;entryDy=0;" edge="1" parent="sM3O0pvL-J6C8m5YZxhi-1" source="ePnOEDz-q3o3Hu1mMtfP-1" target="sM3O0pvL-J6C8m5YZxhi-27">
                    <mxGeometry relative="1" as="geometry"/>
                </mxCell>
                <mxCell id="ePnOEDz-q3o3Hu1mMtfP-1" value="2. Abfrage&lt;br&gt;a == b" style="rhombus;whiteSpace=wrap;html=1;fillColor=#e3c800;fontColor=#000000;strokeColor=#B09500;" vertex="1" parent="sM3O0pvL-J6C8m5YZxhi-1">
                    <mxGeometry x="500" y="160" width="80" height="80" as="geometry"/>
                </mxCell>
            </root>
        </mxGraphModel>
    </diagram>
</mxfile>